<svg width="75" height="75" viewBox="0 0 75 75" fill="none" xmlns="http://www.w3.org/2000/svg">
<path d="M40.9664 39.792C40.9664 39.2638 40.9664 38.7676 40.9664 38.2714C40.9664 35.6623 40.9664 33.0372 40.9664 30.4282C40.9664 29.3237 40.4702 28.8115 39.3658 28.7955C38.5494 28.7795 37.7331 28.7795 36.9007 28.7955C35.8443 28.8115 35.3161 29.3397 35.3161 30.3962C35.3161 33.3094 35.3161 36.2226 35.3161 39.1358C35.3161 39.3439 35.3161 39.5679 35.3161 39.76C33.8115 39.76 32.3389 39.8721 30.8983 39.728C29.5857 39.584 28.6894 38.3034 28.6894 36.9109C28.6733 33.4534 28.6894 29.996 28.6894 26.5546C28.6894 26.3465 28.6894 26.1384 28.6894 25.7862C28.2412 26.1064 27.889 26.3625 27.5369 26.6026C26.5125 27.3229 25.296 27.1468 24.6077 26.2184C23.9194 25.274 24.1435 24.0575 25.1359 23.3212C29.0095 20.5041 32.8991 17.6869 36.7727 14.8697C37.7171 14.1814 38.5334 14.1814 39.4778 14.8697C43.3514 17.6709 47.209 20.472 51.0826 23.2732C52.123 24.0415 52.3471 25.258 51.6588 26.2024C50.9706 27.1468 49.738 27.2909 48.6816 26.5546C48.3615 26.3305 48.0413 26.0904 47.6252 25.8023C47.6092 26.1224 47.5932 26.3625 47.5932 26.5866C47.5932 29.916 47.5932 33.2613 47.5932 36.5907C47.5932 37.391 47.4651 38.1434 46.9209 38.7676C46.4567 39.3279 45.8805 39.744 45.1442 39.776C43.7996 39.8241 42.423 39.792 40.9664 39.792Z" fill="#1B365D"/>
<path d="M57.7109 49.4858H53.7578V67.5327H57.7109C58.4234 67.5327 59 66.9562 59 66.2437V50.7749C59 50.0624 58.4234 49.4858 57.7109 49.4858Z" fill="#1B365D"/>
<path d="M16.2891 49.4858C15.5766 49.4858 15 50.0624 15 50.7749V66.2437C15 66.9562 15.5766 67.5327 16.2891 67.5327H20.2422V49.4858H16.2891Z" fill="#1B365D"/>
<path d="M36.0155 50.7749C35.0323 50.7749 34.1486 51.3212 33.7093 52.1999L29.7855 60.05C30.4426 60.3383 31.1375 60.4844 31.8475 60.4844C33.81 60.4844 35.5762 59.3905 36.4561 57.6281L37.3046 55.9312H39.7996C40.4782 55.9312 41.1428 56.2068 41.6224 56.6865L51.1796 66.2436V50.7749H36.0155Z" fill="#1B365D"/>
<path d="M39.7997 58.5092H38.8984L38.8239 58.6583C37.6063 61.0934 35.2317 62.8126 32.518 63.0345C30.5213 63.1978 29.1377 62.6234 27.4969 61.8771C26.8297 61.5738 26.5394 60.7766 26.8672 60.121L31.4025 51.048C32.276 49.3005 34.0621 48.1967 36.0156 48.1967H41.5786C41.9356 47.4058 42.1562 46.5424 42.1562 45.6185C42.1562 44.906 41.5797 44.3295 40.8672 44.3295H30.8593C29.3942 44.3295 28.0549 45.1571 27.3997 46.4676L26.2471 48.7729C26.0286 49.2097 25.5823 49.4857 25.0938 49.4857H22.8203V67.5326H28.7319L32.3838 71.1845C33.4424 72.2431 34.9671 72.5773 36.2824 72.1375L47.2911 68.6768C47.949 68.4917 48.5037 68.1297 48.9561 67.6655L39.7997 58.5092Z" fill="#1B365D"/>
<path d="M38.2485 4C37.536 4 36.9595 4.57655 36.9595 5.28906V9.15625C36.9595 9.86876 37.536 10.4453 38.2485 10.4453C38.961 10.4453 39.5376 9.86876 39.5376 9.15625V5.28906C39.5376 4.57655 38.961 4 38.2485 4Z" fill="#1B365D"/>
<path d="M31.4257 12.112L28.8475 9.53388C28.344 9.03037 27.5282 9.03037 27.0247 9.53388C26.5212 10.0374 26.5212 10.8532 27.0247 11.3567L29.6029 13.9348C30.1064 14.4383 30.9222 14.4383 31.4257 13.9348C31.9292 13.4313 31.9292 12.6155 31.4257 12.112Z" fill="#1B365D"/>
<path d="M49.4724 9.53388C48.9689 9.03037 48.1531 9.03037 47.6496 9.53388L45.0715 12.112C44.568 12.6155 44.568 13.4313 45.0715 13.9348C45.575 14.4383 46.3908 14.4383 46.8943 13.9348L49.4724 11.3567C49.9759 10.8532 49.9759 10.0374 49.4724 9.53388Z" fill="#1B365D"/>
</svg>
