<svg width="75" height="75" viewBox="0 0 75 75" fill="none" xmlns="http://www.w3.org/2000/svg">
<path d="M23.3894 33.4807H16.9474C16.2401 33.4807 15.6667 34.0541 15.6667 34.7614C15.6667 35.4687 16.2401 36.0421 16.9474 36.0421H23.3894C24.0967 36.0421 24.6701 35.4687 24.6701 34.7614C24.6701 34.0541 24.0967 33.4807 23.3894 33.4807Z" fill="#1B365D"/>
<path d="M23.3894 43.7263H20.9305C20.2232 43.7263 19.6498 44.2997 19.6498 45.007C19.6498 45.7143 20.2232 46.2877 20.9305 46.2877H23.3894C24.0967 46.2877 24.6701 45.7143 24.6701 45.007C24.6701 44.2997 24.0967 43.7263 23.3894 43.7263Z" fill="#1B365D"/>
<path d="M23.3895 38.6035H11.2807C10.5734 38.6035 10 39.1769 10 39.8842C10 40.5915 10.5734 41.1649 11.2807 41.1649H23.3895C24.0968 41.1649 24.6702 40.5915 24.6702 39.8842C24.6702 39.1769 24.0968 38.6035 23.3895 38.6035Z" fill="#1B365D"/>
<path d="M44.1158 23C34.7909 23 27.2316 30.5593 27.2316 39.8842C27.2316 49.2091 34.7909 56.7685 44.1158 56.7685C53.4407 56.7685 61.0001 49.2091 61.0001 39.8842C61.0001 30.5593 53.4407 23 44.1158 23ZM49.4404 46.8184L42.3441 41.9824V31.6208H44.9055V40.6283L50.8829 44.7017L49.4404 46.8184Z" fill="#1B365D"/>
</svg>
