<svg width="75" height="75" viewBox="0 0 75 75" fill="none" xmlns="http://www.w3.org/2000/svg">
<g clip-path="url(#clip0)">
<path d="M29.2731 35.4561V53.8553C29.2731 54.6734 28.7572 55.401 27.9872 55.6705C26.8976 56.0536 25.5828 56.2557 24.1834 56.2557C20.1582 56.2557 15.8289 54.6041 15.8289 50.9774V27.4346C15.7384 25.8176 16.3024 22.9609 19.0109 21.4151C20.2679 20.6971 26.8687 16.4525 30.1836 14.308C30.7746 13.925 31.5292 13.898 32.149 14.233C32.7689 14.5718 33.1539 15.2205 33.1539 15.925V18.7124C33.1539 19.775 32.2915 20.6374 31.2289 20.6374C30.4011 20.6374 29.6946 20.1158 29.4232 19.3804C26.4279 21.3054 22.0158 24.1313 20.9205 24.7569C19.9349 25.321 19.7212 26.3566 19.6789 26.9187C19.6789 27.5501 19.8155 28.0468 20.0619 28.3182C20.7453 29.0632 23.0226 28.5992 25.5078 27.1074C27.8948 25.6752 39.6681 17.8366 39.7855 17.7576C40.3803 17.363 41.1388 17.3264 41.7606 17.6633C42.3881 17.9983 42.7789 18.6508 42.7789 19.3612V19.5806C42.7789 20.2236 42.4574 20.8242 41.9242 21.1822C41.9242 21.1822 33.7506 26.6377 33.0268 27.1016C30.2567 28.8841 29.2731 31.0709 29.2731 35.4561ZM58.1789 26.166V51.1564C58.1789 51.8167 57.8382 52.4327 57.278 52.785C57.278 52.785 46.0552 61.5014 43.778 62.8855C42.5806 63.615 41.056 64 39.3716 64C35.3695 64 31.2289 61.8344 31.2289 58.2135V34.8902V34.3261C31.2289 34.3184 31.2346 34.3107 31.2346 34.3011C31.2731 32.892 31.6023 30.8804 34.2222 28.9477C35.793 27.7888 45.1486 21.4094 45.5451 21.1399C46.1361 20.7395 46.9003 20.6971 47.5279 21.0282C48.1593 21.3612 48.5539 22.0157 48.5539 22.7299V25.5173C48.5539 26.5799 47.6934 27.4423 46.6289 27.4423C45.8339 27.4423 45.1505 26.9611 44.8579 26.2719C41.8722 28.3143 37.489 31.3231 36.5072 32.045C35.2675 32.9613 35.102 33.5658 35.0808 34.3415C35.0846 34.9171 35.2406 35.356 35.5563 35.6448C36.538 36.5437 39.181 36.1664 41.7875 34.6033C43.7164 33.4445 52.0285 27.0265 55.0662 24.6511C55.6494 24.2006 56.4348 24.1178 57.097 24.4393C57.7592 24.7608 58.1789 25.4288 58.1789 26.166ZM54.3289 34.7439L44.7039 42.2109V46.0609L54.3289 38.5939V34.7439Z" fill="#1B365D"/>
</g>
<defs>
<clipPath id="clip0">
<rect width="50" height="50" fill="white" transform="translate(12 14)"/>
</clipPath>
</defs>
</svg>
