<svg width="91" height="91" viewBox="0 0 91 91" fill="none" xmlns="http://www.w3.org/2000/svg">
<path d="M83.4803 43.0061C81.9032 41.5276 75.6935 35.7121 64.851 25.5596L46.2957 8.11316L36.7592 16.9843V16.1711C36.7099 14.939 36.291 13.9533 35.5025 13.214C34.7139 12.4255 33.7529 12.0312 32.6194 12.0312H26.4835C25.3007 12.0312 24.3151 12.4255 23.5265 13.214C22.738 14.0026 22.3437 14.9883 22.3437 16.1711V30.3648L8.66743 43.0061C8.37173 43.2525 8.22388 43.5729 8.22388 43.9672C8.22388 44.3122 8.34709 44.6325 8.59351 44.9282C8.83993 45.1746 9.13563 45.2978 9.48062 45.2978C9.8256 45.2978 10.1459 45.1746 10.4417 44.9282L46.2957 11.8094L81.7061 44.9282C82.0018 45.2239 82.2975 45.3718 82.5932 45.3718C82.9382 45.3225 83.2339 45.1746 83.4803 44.9282C83.776 44.6325 83.8992 44.3122 83.8499 43.9672C83.8499 43.5729 83.7267 43.2525 83.4803 43.0061ZM25.005 16.0232C25.0543 15.6289 25.2022 15.3086 25.4486 15.0622C25.695 14.7665 26.04 14.6186 26.4835 14.6186H32.6194C33.0137 14.6186 33.334 14.7665 33.5804 15.0622C33.8761 15.3086 34.024 15.6289 34.024 16.0232V19.3499L24.9311 27.7774V16.0232H25.005ZM71.5043 39.162C71.1101 39.2113 70.7897 39.3591 70.5433 39.6055C70.2969 39.852 70.1737 40.1723 70.1737 40.5666V75.2378C70.1244 76.4206 69.6808 77.4309 68.843 78.2687C68.0545 79.0573 67.0442 79.4762 65.8121 79.5255H53.5404V40.9362H42.8951L30.4016 51.7294L38.5334 59.7873L41.934 56.9042V79.4515H25.7443C24.5615 79.4023 23.5512 78.9833 22.7133 78.1948C21.8755 77.4063 21.4566 76.3713 21.4566 75.0899V40.7144C21.4073 40.3694 21.2595 40.0737 21.013 39.8273C20.7666 39.5316 20.4463 39.3838 20.052 39.3838C19.707 39.3838 19.3867 39.5316 19.091 39.8273C18.8445 40.0737 18.7213 40.3694 18.7213 40.7144V75.0899C18.7706 77.1106 19.4606 78.7862 20.7913 80.1169C22.1219 81.3982 23.7729 82.0636 25.7443 82.1129H44.7432V51.064L38.8292 56.091L34.4675 51.8033L43.93 43.5236H50.8791V82.0389H65.886C67.9066 81.9897 69.5576 81.3243 70.839 80.0429C72.1697 78.7123 72.8597 77.0366 72.9089 75.016V40.5666C72.8104 39.6795 72.3422 39.2113 71.5043 39.162Z" fill="#1B365D"/>
</svg>
