<svg width="91" height="91" viewBox="0 0 91 91" fill="none" xmlns="http://www.w3.org/2000/svg">
<path d="M30.4756 42.3409C29.9827 42.8337 27.9374 44.879 24.3397 48.4767L18.2039 54.6865C17.9575 54.9329 17.8343 55.2286 17.8343 55.5736C17.8343 55.9186 17.9575 56.2143 18.2039 56.4607C18.4996 56.7071 18.8199 56.8303 19.1649 56.8303C19.5099 56.8303 19.8302 56.7071 20.1259 56.4607L32.3237 44.1151C32.5701 43.8687 32.6933 43.573 32.6933 43.228C32.6933 42.883 32.5455 42.5873 32.2498 42.3409C32.0034 42.0452 31.7077 41.8973 31.3627 41.8973C31.067 41.8973 30.7713 42.0452 30.4756 42.3409ZM49.2527 53.3558C48.8584 53.2572 48.5134 53.2819 48.2177 53.4297C47.922 53.5776 47.7003 53.824 47.5524 54.169L41.6384 70.5805C41.5398 70.9255 41.5644 71.2458 41.7123 71.5415C41.8601 71.8373 42.1065 72.059 42.4515 72.2069C42.5994 72.2562 42.7472 72.2808 42.8951 72.2808C43.4372 72.2315 43.8315 71.9358 44.0779 71.3937L49.992 55.0561C50.0905 54.6618 50.0659 54.3168 49.918 54.0211C49.7702 53.7254 49.5484 53.5037 49.2527 53.3558ZM79.858 23.3419C79.7594 18.8078 78.1823 15.0376 75.1267 12.0313C72.1204 8.9757 68.3502 7.39862 63.8161 7.30005C61.0562 7.34933 58.5427 7.99002 56.2757 9.22212C54.0086 10.4542 52.1358 12.1052 50.6573 14.1751C49.3266 13.7316 48.5381 13.5345 48.2917 13.5837C47.2567 13.3866 46.2218 13.288 45.1868 13.288C40.0613 13.4359 35.7982 15.2348 32.3976 18.6846C28.997 22.0852 27.2228 26.3236 27.075 31.3999C27.075 32.1391 27.1735 33.0755 27.3707 34.209C27.6171 35.2933 27.9374 36.5007 28.3317 37.8314L28.4796 38.201L12.142 55.3518V65.6275H24.4136L24.3397 59.5656L31.2148 59.1959L30.9191 53.5037L35.9461 53.3558L40.3077 49.216H40.5295C41.1209 49.3145 41.7369 49.3638 42.3776 49.3638L42.5255 49.5856C42.9197 50.0291 43.2894 50.4973 43.6343 50.9902L43.93 51.212L36.2418 73.6115L40.5295 83L51.6923 77.8252L49.1049 72.3547L55.2407 69.1759L52.6533 64.0011L57.2367 61.8573L59.4545 56.2389L59.6762 56.165C60.4155 55.9186 61.1301 55.6721 61.8201 55.4257C62.5593 55.13 63.1015 54.8836 63.4465 54.6865L63.89 54.5386C67.6356 52.7151 70.4201 50.0784 72.2436 46.6286C74.0671 43.1787 74.7571 39.4824 74.3135 35.5397C76.0878 34.0119 77.4431 32.213 78.3795 30.1431C79.3651 28.0239 79.858 25.7569 79.858 23.3419ZM39.4206 46.4068C39.2234 46.6039 38.4595 47.3432 37.1289 48.6246L34.9111 50.8423L28.2578 50.9163L28.5535 56.7564L21.7523 57.0521L21.8262 62.9662H14.8033V56.2389L31.3627 38.7185L30.8452 37.0182C30.4509 35.7861 30.1552 34.6772 29.9581 33.6916C29.7609 32.7059 29.6624 31.9173 29.6624 31.3259C29.8102 26.4468 31.6091 22.5041 35.059 19.4978C38.5581 16.4915 42.8212 15.3333 47.8481 16.0233C47.996 16.0233 48.5134 16.1465 49.4006 16.3929C48.8092 17.5757 48.3656 18.8325 48.0699 20.1631C46.2464 20.4096 44.7432 21.1981 43.5604 22.5288C42.3776 23.8101 41.7862 25.4119 41.7862 27.3339C41.8355 29.3546 42.5255 31.0302 43.8561 32.3609C45.1868 33.6916 46.8624 34.3569 48.8831 34.3569C50.9037 34.3569 52.5794 33.6916 53.91 32.3609C55.2407 31.0302 55.9307 29.3546 55.98 27.3339C55.98 25.609 55.4625 24.1305 54.4275 22.8984C53.4418 21.6663 52.1605 20.8038 50.5834 20.311C50.8298 19.276 51.1994 18.2903 51.6923 17.354C54.4522 18.6846 56.596 20.6067 58.1238 23.1202C59.7009 25.5844 60.5141 28.3196 60.5634 31.3259C60.4648 35.7122 58.937 39.3838 55.98 42.3409C53.0722 45.2486 49.4498 46.7518 45.1129 46.8503H44.5954C44.1518 46.8503 43.5851 46.8257 42.8951 46.7764C42.2051 46.7271 41.5398 46.6778 40.8991 46.6286L39.4206 46.4068ZM52.2837 30.291C51.0023 28.1718 50.3616 25.8308 50.3616 23.268V22.8984C51.2487 23.2434 51.9633 23.8101 52.5054 24.5987C53.0968 25.3379 53.3926 26.2004 53.3926 27.1861C53.4418 28.4675 53.0722 29.5024 52.2837 30.291ZM50.0659 31.6956C49.6716 31.7941 49.2774 31.8434 48.8831 31.8434C47.6017 31.7941 46.5175 31.3506 45.6303 30.5127C44.7925 29.6256 44.349 28.566 44.2997 27.3339C44.349 26.2004 44.694 25.2394 45.3346 24.4508C45.9753 23.6623 46.8132 23.1202 47.8481 22.8245V23.268C47.7988 26.3729 48.5381 29.1821 50.0659 31.6956ZM62.7811 52.173C62.7811 52.173 62.7072 52.2223 62.5593 52.3208L60.7112 53.134C60.0212 53.3805 59.4052 53.5776 58.8631 53.7254L57.3845 54.169L55.0189 60.0091L49.0309 62.8183L51.6923 68.067L45.7043 71.2458L48.2917 76.6424L41.8601 79.5995L38.977 73.4636L46.8132 50.6206L45.7043 49.4377C50.6819 49.142 54.7971 47.3185 58.0499 43.9672C61.3026 40.5666 63.0029 36.3775 63.1508 31.3999C63.1015 28.5414 62.4854 25.9047 61.3026 23.4898C63.3232 24.2291 65.0975 25.3133 66.6253 26.7425C68.2023 28.1225 69.4344 29.7735 70.3216 31.6956C72.0958 35.6875 72.2683 39.6303 70.839 43.5237C69.4098 47.3678 66.7238 50.2509 62.7811 52.173ZM72.7611 30.5867C71.529 27.9746 69.8041 25.7815 67.5863 24.0073C65.3685 22.2331 62.8797 21.0502 60.1198 20.4588C59.9227 20.4096 59.7255 20.4096 59.5284 20.4588C57.8527 18.1918 55.7089 16.4176 53.0969 15.1362C54.3289 13.4605 55.8567 12.1545 57.6802 11.2181C59.553 10.2817 61.5983 9.81353 63.8161 9.81353C67.6602 9.91209 70.839 11.2181 73.3525 13.7316C75.866 16.2451 77.172 19.4239 77.2706 23.268C77.2706 25.0422 76.9502 26.7425 76.3095 28.3689C75.6688 29.946 74.7325 31.3506 73.5004 32.5827C73.2539 31.942 73.0075 31.2766 72.7611 30.5867Z" fill="#1B365D"/>
</svg>
