<svg id="Layer_8" data-name="Layer 8" xmlns="http://www.w3.org/2000/svg" xmlns:xlink="http://www.w3.org/1999/xlink" viewBox="0 0 49.12 49.12"><defs><style>.cls-1{fill:none;}.cls-2{clip-path:url(#clip-path);}.cls-3{fill:#366492;}</style><clipPath id="clip-path"><rect class="cls-1" x="0.7" y="0.72" width="48.04" height="47.98"/></clipPath></defs><g class="cls-2"><path class="cls-3" d="M30.65,28.74c-.82,1.81-5.23,1.88-5.78,1.88a12.39,12.39,0,0,1-6.05-1.7l-1,1.83a14.53,14.53,0,0,0,7.08,2c4.65,0,7.56-1.47,8-4Z"/></g><rect class="cls-3" x="24.18" y="14.26" width="1.82" height="20.9" transform="translate(-0.08 0.08) rotate(-0.18)"/><g class="cls-2"><path class="cls-3" d="M19.78,20.55c.7-1.2,2.61-2,5.1-2A15.1,15.1,0,0,1,31.24,20l.93-1.87a17.07,17.07,0,0,0-7.29-1.69c-3.89,0-6.75,1.64-7.37,4.07Z"/><path class="cls-3" d="M31.63,25.23c-2.06-1.91-5.89-1.77-7-1.68-2.8.22-4.07-.36-4.63-.88a1.81,1.81,0,0,1-.4-.55H17.42a3.64,3.64,0,0,0,1.07,2c1.25,1.23,3.37,1.73,6.29,1.5,1.93-.15,4.36.14,5.43,1.13a1.94,1.94,0,0,1,.32.4h2.24a3.8,3.8,0,0,0-1.14-1.93"/><path class="cls-3" d="M24.26,39l-16-9.66h4.69V11.93H24.27V10.39H11.39V27.83H3.77a.3.3,0,0,0-.15.55L24.26,40.83Z"/><path class="cls-3" d="M37.27,29.37H42L25.94,39v1.8L46.58,28.38a.3.3,0,0,0-.15-.55H38.81V10.39H26v1.54H37.27Z"/></g></svg>