<svg id="Layer_5" data-name="Layer 5" xmlns="http://www.w3.org/2000/svg" xmlns:xlink="http://www.w3.org/1999/xlink" viewBox="0 0 49.12 49.12"><defs><style>.cls-1,.cls-4{fill:none;}.cls-2{clip-path:url(#clip-path);}.cls-3{fill:#366492;}.cls-4{stroke:#366492;stroke-miterlimit:10;stroke-width:0.75px;}</style><clipPath id="clip-path"><rect class="cls-1" x="0.7" y="0.72" width="48.04" height="47.98"/></clipPath></defs><g class="cls-2"><path class="cls-3" d="M41.45,45a1.14,1.14,0,0,0,.38-.76,1.52,1.52,0,0,0-.17-.84L31.16,30.06a1.32,1.32,0,0,0-.84-.39,1.16,1.16,0,0,0-.72.26,1,1,0,0,0-.38.7,1.17,1.17,0,0,0,.25.82l10.42,13.4a1.28,1.28,0,0,0,.84.39,1.2,1.2,0,0,0,.72-.26M7.59,16.66a12.48,12.48,0,0,0,3.52,8.69,11.82,11.82,0,0,0,17,0,12.6,12.6,0,0,0,0-17.47,11.81,11.81,0,0,0-17,0,12.53,12.53,0,0,0-3.52,8.73M42.84,42.43a2.71,2.71,0,0,1,.59,2,3,3,0,0,1-1,1.88,2.62,2.62,0,0,1-1.69.61,2.76,2.76,0,0,1-2.06-1L28.21,32.57A2.92,2.92,0,0,1,28,29.29l-.8-1A13.91,13.91,0,0,1,23.65,30a12.82,12.82,0,0,1-4,.63A13.35,13.35,0,0,1,10,26.54a14.27,14.27,0,0,1-4-9.88,14.12,14.12,0,0,1,4-9.9,13.38,13.38,0,0,1,19.3,0,14,14,0,0,1,4,9.9A13.59,13.59,0,0,1,32,22.54a14.15,14.15,0,0,1-3.48,4.67l.76,1a2.35,2.35,0,0,1,1-.21,2.73,2.73,0,0,1,2.07,1l5.27,6.7,5.23,6.7M18.13,8a.64.64,0,0,1,.59.11.84.84,0,0,1,.32.54.77.77,0,0,1-.13.61.75.75,0,0,1-.53.3A6.92,6.92,0,0,0,14.32,12a7.12,7.12,0,0,0-1.63,4.56,7.68,7.68,0,0,0,.89,3.48A6.82,6.82,0,0,0,16,22.63a.82.82,0,0,1,.36.54.86.86,0,0,1-.11.62.76.76,0,0,1-.67.39.43.43,0,0,1-.42-.13,8.46,8.46,0,0,1-3-3.15A9,9,0,0,1,13.07,11a8.61,8.61,0,0,1,5.06-3"/><path class="cls-4" d="M41.45,45a1.14,1.14,0,0,0,.38-.76,1.52,1.52,0,0,0-.17-.84L31.16,30.06a1.32,1.32,0,0,0-.84-.39,1.16,1.16,0,0,0-.72.26,1,1,0,0,0-.38.7,1.17,1.17,0,0,0,.25.82l10.42,13.4a1.28,1.28,0,0,0,.84.39A1.2,1.2,0,0,0,41.45,45ZM7.59,16.66a12.48,12.48,0,0,0,3.52,8.69,11.82,11.82,0,0,0,17,0,12.6,12.6,0,0,0,0-17.47,11.81,11.81,0,0,0-17,0A12.53,12.53,0,0,0,7.59,16.66ZM42.84,42.43a2.71,2.71,0,0,1,.59,2,3,3,0,0,1-1,1.88,2.62,2.62,0,0,1-1.69.61,2.76,2.76,0,0,1-2.06-1L28.21,32.57A2.92,2.92,0,0,1,28,29.29l-.8-1A13.91,13.91,0,0,1,23.65,30a12.82,12.82,0,0,1-4,.63A13.35,13.35,0,0,1,10,26.54a14.27,14.27,0,0,1-4-9.88,14.12,14.12,0,0,1,4-9.9,13.38,13.38,0,0,1,19.3,0,14,14,0,0,1,4,9.9A13.59,13.59,0,0,1,32,22.54a14.15,14.15,0,0,1-3.48,4.67l.76,1a2.35,2.35,0,0,1,1-.21,2.73,2.73,0,0,1,2.07,1l5.27,6.7ZM18.13,8a.64.64,0,0,1,.59.11.84.84,0,0,1,.32.54.77.77,0,0,1-.13.61.75.75,0,0,1-.53.3A6.92,6.92,0,0,0,14.32,12a7.12,7.12,0,0,0-1.63,4.56,7.68,7.68,0,0,0,.89,3.48A6.82,6.82,0,0,0,16,22.63a.82.82,0,0,1,.36.54.86.86,0,0,1-.11.62.76.76,0,0,1-.67.39.43.43,0,0,1-.42-.13,8.46,8.46,0,0,1-3-3.15A9,9,0,0,1,13.07,11,8.61,8.61,0,0,1,18.13,8Z"/></g></svg>