<svg width="91" height="91" viewBox="0 0 91 91" fill="none" xmlns="http://www.w3.org/2000/svg">
<path d="M82.5193 54.9082C81.6322 54.0704 80.6219 53.6022 79.4884 53.5037C78.4042 53.4051 77.2953 53.5529 76.1617 53.9472C76.0139 53.6515 75.5457 53.134 74.7571 52.3948C74.0179 51.6555 72.8597 51.2366 71.2826 51.138C70.5434 51.1873 69.7302 51.3598 68.8431 51.6555C68.0052 51.9512 67.1428 52.3455 66.2557 52.8383C65.3686 51.7048 64.3336 51.0395 63.1508 50.8423C62.313 50.7438 61.5737 50.8177 60.933 51.0641C60.3416 51.3105 59.9473 51.5077 59.7502 51.6555L47.4785 58.3828C46.0493 58.1363 44.7186 57.8653 43.4865 57.5696C42.2544 57.2246 41.2441 56.8796 40.4556 56.5346C39.5685 56.0911 38.4349 55.3025 37.055 54.169C35.2315 52.7398 33.1123 51.3845 30.6974 50.1031C28.3318 48.7724 25.7197 48.2796 22.8612 48.6246C18.9678 49.3145 15.6904 50.3249 13.0291 51.6555C10.4171 52.9369 8.98784 53.6762 8.74142 53.8733C8.495 54.0704 8.34715 54.3415 8.29787 54.6865C8.24858 54.9822 8.32251 55.2779 8.51964 55.5736C8.71678 55.8693 8.9632 56.0418 9.2589 56.0911C9.5546 56.1403 9.85031 56.0664 10.146 55.8693C10.2939 55.7214 11.5999 55.0315 14.0641 53.7994C16.5283 52.5673 19.5839 51.6309 23.2309 50.9902C25.6458 50.7438 27.8882 51.1873 29.9581 52.3208C32.0773 53.4544 33.9994 54.7111 35.7243 56.0911C37.1536 57.2739 38.4103 58.1363 39.4945 58.6785C41.7616 59.6149 44.7679 60.3788 48.5135 60.9702C52.3083 61.5123 55.3147 61.7094 57.5324 61.5616C57.9267 61.5123 58.2224 61.5616 58.4195 61.7094C58.666 61.8573 58.8631 62.0051 59.011 62.153C59.4052 62.7937 59.4545 63.459 59.1588 64.149C58.7152 65.0854 57.6803 65.6275 56.0539 65.7753C53.0476 66.071 49.4252 66.0957 45.1868 65.8493C40.9977 65.6028 36.5868 64.3461 31.9541 62.079C31.6584 61.9312 31.3627 61.9066 31.067 62.0051C30.7713 62.1037 30.5249 62.3255 30.3277 62.6705C30.1799 62.9662 30.1553 63.2619 30.2538 63.5576C30.3524 63.8533 30.5742 64.075 30.9192 64.2229C34.3197 65.9478 37.5971 67.106 40.7513 67.6974C43.9547 68.2395 46.9364 68.5106 49.6963 68.5106C52.2098 68.4613 54.4276 68.3381 56.3496 68.141C57.976 67.9931 59.1588 67.6235 59.8981 67.0321C60.6866 66.3914 61.1794 65.7753 61.3766 65.1839C61.7216 64.494 61.8448 63.7547 61.7462 62.9662C61.6969 62.1776 61.4505 61.463 61.0069 60.8223C60.0706 59.6395 58.8385 59.0974 57.3107 59.1959C56.67 59.2945 55.8568 59.3192 54.8711 59.2699C53.8854 59.2206 52.8012 59.122 51.6184 58.9742L61.3026 53.7254C61.3026 53.6762 61.4505 53.6022 61.7462 53.5037C62.0912 53.3558 62.4855 53.3312 62.929 53.4297C63.4219 53.479 63.9147 53.7254 64.4075 54.169C63.619 54.7111 62.9783 55.1793 62.4855 55.5736L61.4505 56.3128C61.1548 56.51 60.9823 56.781 60.933 57.126C60.933 57.4217 61.0316 57.7174 61.2287 58.0131C61.4751 58.3088 61.7955 58.4567 62.1898 58.4567C62.4362 58.4567 62.6826 58.3581 62.929 58.161C64.1118 57.2246 65.5411 56.2882 67.2167 55.3518C68.9416 54.3661 70.3709 53.824 71.5044 53.7254C72.2437 53.7747 72.8351 53.9472 73.2786 54.2429C73.7222 54.5386 74.0179 54.785 74.1657 54.9822C72.7858 55.7214 71.5783 56.4607 70.5434 57.2C69.5577 57.9392 68.917 58.432 68.6213 58.6785C68.3749 58.9249 68.227 59.2206 68.1777 59.5656C68.1777 59.9106 68.2763 60.2063 68.4734 60.4527C68.6706 60.6991 68.9416 60.847 69.2866 60.8962C69.6316 60.8962 69.9273 60.7977 70.1737 60.6005C71.3566 59.5163 73.1061 58.3581 75.4225 57.126C77.7881 55.8446 79.6609 55.7214 81.0408 56.7564C81.2873 57.0521 81.4351 57.2985 81.4844 57.4957C81.5337 57.6928 81.5583 57.8406 81.5583 57.9392C81.4597 58.5799 80.9423 59.2945 80.0059 60.0831C79.1188 60.8223 77.936 61.5369 76.4574 62.2269C75.6196 62.6705 74.3136 63.459 72.5394 64.5925C70.8144 65.7261 68.8924 67.0074 66.7732 68.4367C64.7032 69.8166 62.7319 71.1226 60.8591 72.3547C58.9863 73.5375 57.4585 74.4739 56.2757 75.1639C55.7829 75.4103 55.3147 75.706 54.8711 76.051C52.7026 77.5295 50.2384 78.6138 47.4785 79.3038C44.7186 79.9937 41.1456 79.4516 36.7593 77.6774C31.0916 75.361 26.385 74.0057 22.6395 73.6115C18.8939 73.2172 15.6658 73.2665 12.9552 73.7593C12.6102 73.8086 12.3391 73.9811 12.142 74.2768C11.9449 74.5232 11.8709 74.8189 11.9202 75.1639C11.9695 75.4596 12.1174 75.706 12.3638 75.9032C12.6595 76.1003 12.9552 76.1742 13.2509 76.1249C15.8137 75.6814 18.8693 75.6568 22.4177 76.051C25.9661 76.4453 30.4263 77.7267 35.7983 79.8952C39.2481 81.2751 42.2544 81.9404 44.8172 81.8912C47.2321 81.8419 49.3267 81.423 51.1009 80.6344C52.9244 79.8459 54.5754 78.9834 56.0539 78.047C56.4975 77.7513 56.9657 77.4803 57.4585 77.2338C58.6906 76.5439 60.2677 75.5828 62.1898 74.3507C64.1118 73.1186 66.0832 71.8126 68.1038 70.4327C70.1737 69.0527 72.0712 67.8206 73.7961 66.7364C75.521 65.6028 76.7778 64.8389 77.5663 64.4447C78.9956 63.7547 80.3509 62.8922 81.6322 61.8573C82.9136 60.8223 83.7022 59.6641 83.9979 58.3828C83.9486 57.8899 83.8254 57.3478 83.6282 56.7564C83.4804 56.165 83.1108 55.5489 82.5193 54.9082ZM46.5175 48.9203C52.2837 48.7724 57.0642 46.8011 60.8591 43.0062C64.654 39.1621 66.6253 34.3815 66.7732 28.6646C66.6253 22.9477 64.654 18.1918 60.8591 14.3969C57.0642 10.5528 52.2837 8.55679 46.5175 8.40894C40.8006 8.55679 36.02 10.5528 32.1759 14.3969C28.381 18.1918 26.4097 22.9477 26.2618 28.6646C26.4097 34.3815 28.381 39.1621 32.1759 43.0062C36.02 46.8011 40.8006 48.7724 46.5175 48.9203ZM46.5175 10.7746C51.5937 10.9224 55.8075 12.672 59.1588 16.0233C62.5101 19.3746 64.2597 23.5884 64.4075 28.6646C64.2597 33.7408 62.5101 37.9546 59.1588 41.3059C55.8075 44.6572 51.5937 46.4068 46.5175 46.5546C41.4905 46.4068 37.2768 44.6572 33.8762 41.3059C30.5249 37.9546 28.7999 33.7408 28.7014 28.6646C28.7999 23.5884 30.5249 19.3746 33.8762 16.0233C37.2768 12.672 41.4905 10.9224 46.5175 10.7746ZM46.3696 29.8474C49.0803 30.2417 50.8791 30.6606 51.7662 31.1041C52.7026 31.5477 53.1462 32.2623 53.0969 33.248C52.949 34.5294 52.2098 35.3672 50.8791 35.7615C49.5484 36.1065 48.5135 36.2543 47.7742 36.205C45.8029 36.1065 44.1026 35.7368 42.6734 35.0961C41.2441 34.4555 40.4802 34.0858 40.3817 33.9873C40.0859 33.8394 39.7902 33.8148 39.4945 33.9133C39.1988 33.9626 38.9524 34.1351 38.7553 34.4308C38.5581 34.7265 38.4842 35.0222 38.5335 35.3179C38.6321 35.6136 38.8292 35.86 39.1249 36.0572C39.2235 36.1557 39.8395 36.4761 40.9731 37.0182C42.1559 37.5603 43.6097 38.0285 45.3347 38.4228V43.3758C45.3347 43.6715 45.4579 43.9426 45.7043 44.189C45.9507 44.4354 46.2218 44.5586 46.5175 44.5586C46.8625 44.5586 47.1335 44.4354 47.3307 44.189C47.5771 43.9426 47.7249 43.6715 47.7742 43.3758V38.5707C50.5834 38.5214 52.5794 37.9792 53.7622 36.9443C54.945 35.86 55.5118 34.6279 55.4625 33.248C55.3639 31.0302 54.4522 29.5763 52.7273 28.8864C51.0516 28.1964 49.031 27.7282 46.6653 27.4818C45.1868 27.2846 43.8069 26.9397 42.5255 26.4468C41.2441 25.954 40.5541 25.2394 40.4556 24.303C40.4556 23.958 40.5049 23.5884 40.6034 23.1941C40.7513 22.7998 40.9731 22.4302 41.2688 22.0852C42.1559 21.1488 43.5851 20.6806 45.5565 20.6806C47.8728 20.7792 49.6224 21.1488 50.8052 21.7895C51.988 22.3809 52.604 22.7505 52.6533 22.8984C52.8998 23.1448 53.1708 23.268 53.4665 23.268C53.8115 23.2187 54.1072 23.0709 54.3536 22.8245C54.6 22.578 54.6986 22.307 54.6493 22.0113C54.6493 21.6663 54.5261 21.3952 54.2797 21.1981C54.2304 21.0502 53.639 20.656 52.5055 20.0153C51.4212 19.3253 49.7949 18.8078 47.6264 18.4628V14.4708C47.6264 14.1259 47.5032 13.8548 47.2567 13.6577C47.0596 13.4112 46.7886 13.288 46.4436 13.288C46.1479 13.288 45.8768 13.4112 45.6304 13.6577C45.384 13.8548 45.2608 14.1259 45.2608 14.4708V18.3889C42.698 18.4382 40.7759 19.1035 39.4945 20.3849C38.5089 21.4199 38.016 22.7259 38.016 24.303C38.1639 27.2107 40.9484 29.0589 46.3696 29.8474Z" fill="#1B365D"/>
</svg>
