<?xml version="1.0" encoding="utf-8"?>
<!-- Generator: Adobe Illustrator 25.2.1, SVG Export Plug-In . SVG Version: 6.00 Build 0)  -->
<svg version="1.1" id="Layer_1" xmlns="http://www.w3.org/2000/svg" xmlns:xlink="http://www.w3.org/1999/xlink" x="0px" y="0px"
	 viewBox="0 0 49.1 49.1" style="enable-background:new 0 0 49.1 49.1;" xml:space="preserve">
<style type="text/css">
	.st0{fill:#275980;}
</style>
<g>
	<path class="st0" d="M17,14.3c0-3.8,3.1-6.9,6.9-7h1.4c3.8,0,6.9,3.1,6.9,6.9v6.2h1.9v-6.2c0-4.8-4-8.8-8.8-8.8h-1.4
		c-4.9,0-8.8,4-8.8,8.9v6.1H17V14.3z"/>
	<path class="st0" d="M30.1,20.5l0-5.7c0-2.9-2.4-5.2-5.2-5.2h-0.5c-2.9,0-5.2,2.4-5.2,5.2v5.7h1.9v-5.7c0-1.9,1.5-3.4,3.4-3.4h0.5
		c1.9,0,3.4,1.5,3.4,3.4v5.7H30.1z"/>
	<path class="st0" d="M22.3,36.3c0,1.3,1,2.3,2.3,2.3c1.3,0,2.3-1,2.3-2.3v-3.6c0.8-0.7,1.2-1.6,1.2-2.6c0-1.9-1.6-3.5-3.5-3.5
		c-1.9,0-3.5,1.6-3.5,3.5c0,1,0.4,2,1.2,2.6V36.3z M24.6,28.5c0.9,0,1.6,0.7,1.6,1.6c0,0.5-0.3,1.1-0.8,1.3L25,31.7v4.6
		c0,0.2-0.2,0.4-0.4,0.4c-0.2,0-0.4-0.2-0.4-0.4v-4.6l-0.4-0.3c-0.5-0.3-0.7-0.8-0.8-1.3C23,29.2,23.7,28.5,24.6,28.5z"/>
	<path class="st0" d="M37.3,22.5H12.1c0,0,0,0,0,0c-0.6,0-1.1,0.5-1.1,1.1v13h0.1c0,0.3,0.1,0.5,0.2,0.8c0.9,3.1,3.8,5.2,7,5.1h12.9
		l0,0c3.2,0,6.1-2,7-5.1c0.2-0.6,0.2-1.2,0.2-1.8v-2.4v-9.6c0,0,0,0,0,0C38.4,23,37.9,22.5,37.3,22.5z M36.6,28.7v6.8
		c0,0,0,0.1,0,0.1c0,0.4-0.1,0.8-0.2,1.2c-0.7,2.3-2.8,3.8-5.2,3.8H18.2c-2.4,0.1-4.5-1.5-5.2-3.8c-0.1-0.4-0.2-0.8-0.2-1.2v-0.9
		l0-10.3h23.7V28.7z"/>
</g>
</svg>
