<svg id="Layer_7" data-name="Layer 7" xmlns="http://www.w3.org/2000/svg" xmlns:xlink="http://www.w3.org/1999/xlink" viewBox="0 0 49.12 49.12"><defs><style>.cls-1{fill:none;}.cls-2{clip-path:url(#clip-path);}.cls-3{fill:#366492;}</style><clipPath id="clip-path"><rect class="cls-1" x="0.7" y="0.72" width="48.04" height="47.98"/></clipPath></defs><g class="cls-2"><path class="cls-3" d="M17.24,22.93a8.14,8.14,0,0,1,15.58-.72c.49,0,1,0,1.55,0h.43a10,10,0,0,0-19.46.55c.63.05,1.27.11,1.9.19"/><path class="cls-3" d="M34.23,23.79a40.62,40.62,0,0,0-11.9,1.75,39.42,39.42,0,0,0-9.71-1.27A28.28,28.28,0,0,0,2,26.17l1.63,1.41a27.05,27.05,0,0,1,9-1.42,36.29,36.29,0,0,1,6.4.59,27.76,27.76,0,0,0-3.09,1.53,31.15,31.15,0,0,0-3.31-.18,26.22,26.22,0,0,0-7.25,1l1.72,1.5A25.1,25.1,0,0,1,12.62,30h.66A20.74,20.74,0,0,0,10,33.06l1.4,1.21c4.3-5.09,12.93-8.59,22.86-8.59a38.83,38.83,0,0,1,12,1.85l.79-1.7a40.18,40.18,0,0,0-12.83-2"/><path class="cls-3" d="M12.84,35.55l1.42,1.23c3.52-4.2,11.35-7.27,20-7.27a35.21,35.21,0,0,1,10.4,1.55l.81-1.74a37,37,0,0,0-11.21-1.7c-9.25,0-17.47,3.28-21.39,7.93"/><path class="cls-3" d="M15.71,38l1.41,1.22a10.71,10.71,0,0,1,2.49-2.16c.43.49,1.42,1.92,2,5.27L23.5,42a13.74,13.74,0,0,0-2.23-5.85,24,24,0,0,1,3.24-1.34,18.86,18.86,0,0,1,2.87,6.4l1.85-.38a21.55,21.55,0,0,0-2.79-6.56,31.23,31.23,0,0,1,3.17-.62A18.16,18.16,0,0,1,33.25,40l1.86-.38a19.68,19.68,0,0,0-3.23-6.19c.76-.05,1.54-.09,2.35-.09.53,0,1,0,1.55,0a11.34,11.34,0,0,1,3.73,5.34l1.86-.38a13.72,13.72,0,0,0-2.59-4.7,29.44,29.44,0,0,1,4.23.89l.81-1.72a33.28,33.28,0,0,0-9.59-1.36c-8.62,0-15.6,3-18.52,6.6"/></g><rect class="cls-3" x="35.44" y="18.82" width="4.39" height="1.91" transform="translate(-4.71 15.98) rotate(-22.59)"/><rect class="cls-3" x="28.24" y="11.63" width="3.98" height="1.91" transform="translate(6.65 35.31) rotate(-66.53)"/><rect class="cls-3" x="21.4" y="8.8" width="7.48" height="1.91" transform="translate(15.33 34.87) rotate(-89.88)"/><rect class="cls-3" x="31.88" y="12.8" width="8.64" height="1.91" transform="translate(0.16 27.93) rotate(-42.29)"/><rect class="cls-3" x="12.9" y="9.54" width="1.91" height="8.64" transform="matrix(0.67, -0.74, 0.74, 0.67, -5.72, 14.8)"/><rect class="cls-3" x="11.67" y="17.58" width="1.91" height="4.39" transform="translate(-10.48 23.82) rotate(-67.39)"/><rect class="cls-3" x="19.07" y="10.6" width="1.91" height="3.98" transform="translate(-3.36 9.01) rotate(-23.46)"/></svg>