<?xml version="1.0" encoding="utf-8"?>
<!-- Generator: Adobe Illustrator 25.2.1, SVG Export Plug-In . SVG Version: 6.00 Build 0)  -->
<svg version="1.1" id="Layer_10" xmlns="http://www.w3.org/2000/svg" xmlns:xlink="http://www.w3.org/1999/xlink" x="0px" y="0px"
	 viewBox="0 0 58.6 49.1" style="enable-background:new 0 0 58.6 49.1;" xml:space="preserve">
<style type="text/css">
	.st0{fill:#366492;}
</style>
<g>
	<path class="st0" d="M44.2,35.5h-3.6l0.6,2.1h3.5c0.4,0,0.7-0.2,0.9-0.5l2.4-4.3h-2.3L44.2,35.5z"/>
	<path class="st0" d="M48.6,28.5h-6.5l-2.5,2.1h9.6c0.4,0,0.7-0.2,0.9-0.5l2.3-4.3h-2.2L48.6,28.5z"/>
	<path class="st0" d="M56.5,16.3H34.8l0.7,2.1h19.4l-2,3.7h-4.4l-2.1,2.1l6.9,0c0.3,0,0.6-0.1,0.8-0.4l3.2-5.8
		c0.2-0.2,0.3-0.5,0.3-0.8C57.6,16.6,57.1,16.2,56.5,16.3z"/>
	<path class="st0" d="M12.2,32.8H9.9l2.4,4.3c0.2,0.3,0.5,0.5,0.9,0.5h3.5l0.6-2.1h-3.6L12.2,32.8z"/>
	<path class="st0" d="M15.9,28.5H9.4l-1.5-2.7H5.6l2.3,4.3c0.2,0.3,0.5,0.5,0.9,0.5h9.6L15.9,28.5z"/>
	<path class="st0" d="M9.5,22.1H5.1l-2-3.7h19.3l0.7-2.1H1.4c-0.3,0-0.6,0.1-0.8,0.3c-0.4,0.4-0.4,1,0,1.4l3.2,5.7
		C4,24,4.3,24.1,4.6,24.1l6.9,0L9.5,22.1z"/>
	<path class="st0" d="M36.4,29.4l8.6-6.6c0.4-0.3,0.5-0.8,0.4-1.2l0,0c-0.2-0.4-0.6-0.7-1.1-0.8l-10.8-0.3l-3.7-10.2
		c-0.2-0.6-0.9-0.9-1.4-0.7c-0.3,0.1-0.5,0.3-0.6,0.6v0.1L24,20.5l-10.8,0.3c-0.5,0-0.8,0.3-1,0.8c-0.1,0.5,0,0.9,0.4,1.2l8.6,6.6
		l-3,10.4c-0.1,0.5,0,0.9,0.4,1.2c0.2,0.1,0.4,0.2,0.7,0.2c0.2,0,0.5-0.1,0.7-0.2l9-6.1l6.3,4.3l-1-3.3l-4.7-3.2
		c-0.2-0.1-0.5-0.2-0.7-0.2c-0.3,0-0.5,0.1-0.7,0.2l-7.1,4.8l2.4-8.2c0.1-0.5,0-1-0.4-1.4l-6.8-5.2l8.6-0.2c0.5,0,1-0.3,1.2-0.8
		l2.9-8.1l2.9,8.1c0.2,0.5,0.6,0.8,1.2,0.8l8.6,0.2L34.6,28c-0.4,0.3-0.6,0.9-0.5,1.4l1.2,4l2,7c0,0.3,0.2,0.5,0.4,0.7
		c0.2,0.1,0.4,0.2,0.7,0.2c0.2,0,0.5-0.1,0.6-0.2c0.4-0.3,0.5-0.8,0.4-1.2L36.4,29.4z"/>
</g>
</svg>
