<svg id="Layer_2" data-name="Layer 2" xmlns="http://www.w3.org/2000/svg" xmlns:xlink="http://www.w3.org/1999/xlink" viewBox="0 0 49.12 49.12"><defs><style>.cls-1{fill:none;}.cls-2{clip-path:url(#clip-path);}.cls-3{fill:#366492;}</style><clipPath id="clip-path"><rect class="cls-1" x="0.7" y="0.72" width="48.04" height="47.98"/></clipPath></defs><g class="cls-2"><path class="cls-3" d="M33.26,23.44a1,1,0,0,1-1-1V10.65a1,1,0,1,1,1.94,0V22.47a1,1,0,0,1-1,1"/><path class="cls-3" d="M33.26,26.2a2.26,2.26,0,1,0,2.25,2.26,2.26,2.26,0,0,0-2.25-2.26m0,6.45a4.2,4.2,0,1,1,4.19-4.19,4.2,4.2,0,0,1-4.19,4.19"/><path class="cls-3" d="M24.76,16.64A2.26,2.26,0,1,0,27,18.89a2.25,2.25,0,0,0-2.26-2.25m0,6.45a4.2,4.2,0,1,1,4.2-4.2,4.2,4.2,0,0,1-4.2,4.2"/><path class="cls-3" d="M16.18,21.88a2.26,2.26,0,1,0,2.25,2.26,2.26,2.26,0,0,0-2.25-2.26m0,6.45a4.2,4.2,0,1,1,4.19-4.19,4.2,4.2,0,0,1-4.19,4.19"/><path class="cls-3" d="M33.26,39.82a1,1,0,0,1-1-1V34.62a1,1,0,0,1,1.94,0v4.23a1,1,0,0,1-1,1"/><path class="cls-3" d="M16.18,39.82a1,1,0,0,1-1-1V30.58a1,1,0,0,1,1.94,0v8.27a1,1,0,0,1-1,1"/><path class="cls-3" d="M16.18,18.93a1,1,0,0,1-1-1V10.65a1,1,0,1,1,1.94,0V18a1,1,0,0,1-1,1"/><path class="cls-3" d="M24.76,39.82a1,1,0,0,1-1-1V25a1,1,0,0,1,1.94,0V38.85a1,1,0,0,1-1,1"/><path class="cls-3" d="M24.76,13.93a1,1,0,0,1-1-1V10.58a1,1,0,1,1,1.94,0V13a1,1,0,0,1-1,1"/></g></svg>