<svg id="Layer_3" data-name="Layer 3" xmlns="http://www.w3.org/2000/svg" xmlns:xlink="http://www.w3.org/1999/xlink" viewBox="0 0 49.12 49.12"><defs><style>.cls-1{fill:none;}.cls-2{clip-path:url(#clip-path);}.cls-3{fill:#366492;}</style><clipPath id="clip-path"><rect class="cls-1" x="0.7" y="0.72" width="48.04" height="47.98"/></clipPath></defs><g class="cls-2"><path class="cls-3" d="M23.35,37a.85.85,0,1,1,.88-.84.86.86,0,0,1-.88.84m0-3.38A2.54,2.54,0,1,0,26,36.19a2.6,2.6,0,0,0-2.64-2.54"/><path class="cls-3" d="M23.35,40a3.81,3.81,0,1,1,4-3.81,3.9,3.9,0,0,1-4,3.81M40.71,29.2,28.61,34a5.75,5.75,0,0,0-5.26-3.33,6.11,6.11,0,0,0-1.72.25L12.36,10.87,6.78,9.51a.88.88,0,0,0-1.07.61.84.84,0,0,0,.64,1l4.74,1.16,9,19.38a5.44,5.44,0,0,0-2.43,4.5,5.73,5.73,0,0,0,11.46,0,4.53,4.53,0,0,0,0-.52l12.34-4.91a.83.83,0,0,0,.48-1.1.91.91,0,0,0-1.16-.46"/><path class="cls-3" d="M24.62,29.72a.83.83,0,0,0,.46-1.11L19.89,17.2l5.87-2.4,1.32,3a.88.88,0,0,0,.81.51.91.91,0,0,0,.35-.07.84.84,0,0,0,.46-1.11l-1.32-3,6.75-2.77L40.34,24.8l-6.6,2.63-1.35-3A.88.88,0,0,0,31.24,24a.83.83,0,0,0-.47,1.11l1.35,3L28.55,29.5a.84.84,0,0,0-.48,1.1.89.89,0,0,0,.82.53,1,1,0,0,0,.34-.07L42.69,25.7,35,9.15,17.56,16.31l5.9,13a.89.89,0,0,0,1.16.43"/></g></svg>